PathFileType	4	(X/Y/Z)	C:/Users/opensim2020/Desktop/walking_exp_matlab/subject03_walking16_run.trc																																																																																																																																																	
DataRate	CameraRate	NumFrames	NumMarkers	Units	OrigDataRate	OrigDataStartFrame	OrigNumFrames																																																																																																																																													
100	100	9	49	mm	100	240	131																																																																																																																																													
Frame#	Time	RKNE			RTOE			RWRB			LTHI			RELB			RFRM			RUPA			RASI			LTIB			RWRA			RTHI			LSHO			LTOE			RTIB			LWRA			CLAV			LASI			RSHO			RFHD			STRN			LHEE			RFIN			RBHD			LFRM			C7			LWRB			LFIN			LUPA			LBHD			LELB			RANK			RHEE			RBAK			LPSI			T10			LFHD			RPSI			LKNE			LANK			*39			*40			*41			*42			*43			*44			*45			*46			*47			*48		
		X1	Y1	Z1	X2	Y2	Z2	X3	Y3	Z3	X4	Y4	Z4	X5	Y5	Z5	X6	Y6	Z6	X7	Y7	Z7	X8	Y8	Z8	X9	Y9	Z9	X10	Y10	Z10	X11	Y11	Z11	X12	Y12	Z12	X13	Y13	Z13	X14	Y14	Z14	X15	Y15	Z15	X16	Y16	Z16	X17	Y17	Z17	X18	Y18	Z18	X19	Y19	Z19	X20	Y20	Z20	X21	Y21	Z21	X22	Y22	Z22	X23	Y23	Z23	X24	Y24	Z24	X25	Y25	Z25	X26	Y26	Z26	X27	Y27	Z27	X28	Y28	Z28	X29	Y29	Z29	X30	Y30	Z30	X31	Y31	Z31	X32	Y32	Z32	X33	Y33	Z33	X34	Y34	Z34	X35	Y35	Z35	X36	Y36	Z36	X37	Y37	Z37	X38	Y38	Z38	X39	Y39	Z39	X40	Y40	Z40	X41	Y41	Z41	X42	Y42	Z42	X43	Y43	Z43	X44	Y44	Z44	X45	Y45	Z45	X46	Y46	Z46	X47	Y47	Z47	X48	Y48	Z48	X49	Y49	Z49
																																																																																																																																																				
50	0.49	79.00599	514.84784	361.26929	314.1102	79.36579	298.45667	-195.59766	963.14325	483.85107	-213.01447	639.98401	85.828	-308.89627	1162.50073	489.5824	-244.17572	1053.09436	487.9827	-257.72879	1247.02295	469.96295	-58.81001	935.54865	349.29843	-465.73431	374.50812	121.42665	-165.98631	995.06073	452.66879	-26.86686	657.0542	403.72104	-74.35179	1390.1886	98.07899	-647.28168	100.08607	187.27246	111.0779	330.64914	365.81091	50.01667	1207.41687	194.03615	-40.22583	1336.75769	247.14798	-58.14916	918.23956	120.18873	-108.64217	1375.87305	387.62048	-77.07299	1630.36743	303.63156	0.31099	1167.91101	244.04865	-664.8197	287.2616	197.24033	-129.5712	930.72205	487.9519	-179.37585	1550.88562	290.55191	38.80873	1157.81494	87.86314	-165.40637	1408.73633	222.23447	95.58365	1180.45691	180.61787	116.13334	1219.4856	259.04706	-34.10831	1219.59338	5.38403	-160.09833	1542.37524	161.7816	-2.70662	1119.73242	-6.01092	169.14253	122.79456	319.51266	133.22429	99.02134	264.16663	-230.40088	1263.0459	298.18463	-208.69215	975.78601	167.791	-207.93692	1109.18958	219.69286	-53.27741	1622.32507	173.21411	-212.59708	979.50671	314.26025	-286.43027	473.18204	120.59061	-632.87524	253.9079	157.19995	NaN	NaN	NaN	NaN	NaN	NaN	NaN	NaN	NaN	NaN	NaN	NaN	NaN	NaN	NaN	NaN	NaN	NaN	NaN	NaN	NaN	-156.5675	1656.82019	206.32298	NaN	NaN	NaN	NaN	NaN	NaN
51	0.5	109.5326	512.0733	361.52487	333.74295	69.87814	295.81189	-155.39566	956.88287	486.38321	-170.00903	633.2179	86.89535	-270.76489	1154.83582	495.57953	-204.83659	1046.25879	491.83112	-221.00433	1239.24634	475.23935	-26.02902	931.81744	349.90399	-426.81824	376.25986	120.65311	-126.33818	989.39679	454.92429	1.97127	651.09937	405.61679	-42.85823	1389.28442	98.87624	-621.22644	113.25902	185.05823	136.91983	325.84091	364.62323	82.73799	1198.22815	195.29161	-8.15773	1335.19287	248.45534	-23.43396	916.65936	120.56786	-75.98116	1372.01746	389.81036	-44.62606	1628.67273	305.29575	35.48132	1167.16199	248.02759	-632.56079	301.50455	197.0547	-88.825	924.54681	488.16653	-146.7045	1548.93237	292.44635	69.50678	1151.30261	88.32482	-133.30396	1405.58276	225.01785	127.13734	1170.01672	181.12057	149.31383	1205.67883	260.71753	-5.6508	1217.44519	4.34835	-127.83949	1540.39856	163.6727	24.98735	1116.32153	-6.72951	189.27058	116.58181	317.00854	153.73865	94.36947	260.79657	-197.97806	1257.37891	301.3656	-175.40866	972.50787	167.34584	-174.89081	1105.60657	220.6185	-21.15239	1620.53979	174.75032	-179.63748	975.6673	314.37494	-241.69704	466.07968	119.90115	-601.21094	267.01328	156.57819	NaN	NaN	NaN	NaN	NaN	NaN	NaN	NaN	NaN	NaN	NaN	NaN	NaN	NaN	NaN	NaN	NaN	NaN	NaN	NaN	NaN	-124.8149	1654.82715	208.12749	NaN	NaN	NaN	NaN	NaN	NaN
52	0.51	140.02054	509.57495	361.48239	346.82278	57.2277	292.39011	-113.64935	949.00842	489.55807	-126.86608	625.99365	87.40804	-231.21706	1145.24109	502.06448	-164.23105	1037.54346	496.18597	-183.63976	1229.95764	480.89038	6.29505	927.44586	350.68906	-384.83566	376.66177	119.84263	-86.01432	981.87213	457.02853	32.0896	647.14563	406.3905	-11.09308	1387.04517	99.65943	-591.43842	126.36983	184.38116	161.46475	319.93869	363.13702	116.46587	1184.67053	197.23074	23.78454	1332.80554	249.64915	10.99266	914.22803	121.07566	-43.48126	1367.30518	391.85046	-11.9864	1625.92834	307.11539	70.5258	1165.59045	251.89299	-597.14435	315.10986	195.20174	-46.88087	916.77313	488.41382	-114.08188	1545.98608	294.37817	99.71097	1141.703	88.6254	-100.74346	1402.14636	227.38431	158.44809	1154.70349	181.28017	184.16838	1186.31848	261.57025	21.95373	1214.34607	2.99928	-95.57252	1537.55713	165.59848	51.11014	1111.61096	-7.25555	204.07072	108.6516	314.11304	168.10683	88.24791	257.12585	-165.48134	1250.76233	304.45651	-142.53555	967.80664	166.68291	-142.29967	1101.29736	221.16321	11.04762	1617.92017	176.38013	-147.47916	971.00391	313.9473	-195.60597	457.50259	118.95445	-566.07648	279.13196	155.15178	NaN	NaN	NaN	NaN	NaN	NaN	NaN	NaN	NaN	NaN	NaN	NaN	NaN	NaN	NaN	NaN	NaN	NaN	NaN	NaN	NaN	-93.05134	1651.93555	210.04347	NaN	NaN	NaN	NaN	NaN	NaN
53	0.52	170.51697	506.78757	361.24338	354.5173	42.68348	288.55972	-70.9279	939.56079	492.2045	-83.98528	618.44092	87.11931	-190.35797	1133.9342	508.60492	-122.44101	1027.25195	500.79428	-145.49733	1219.34412	486.70901	38.34325	923.00458	351.56967	-340.50714	375.51321	118.73833	-44.98808	972.60846	459.03253	63.77475	644.79218	405.98752	20.93872	1383.58997	100.72368	-558.70062	138.97295	185.1618	184.04855	313.13763	361.96399	149.9778	1167.0719	199.19769	55.72512	1329.27136	250.73909	45.16556	911.03314	121.702	-11.12084	1361.68591	393.81256	20.37725	1622.04065	308.7446	98.59367	1160.84668	247.24428	-558.15759	327.80667	192.01175	-3.86144	907.51135	488.89926	-81.48096	1541.97729	296.33701	128.37178	1129.22021	89.47786	-68.34413	1397.80115	229.46573	190.22693	1135.97473	180.28618	219.45103	1162.08826	261.25082	48.69575	1210.27209	1.80111	-63.33073	1533.71069	167.46567	75.80279	1105.73889	-6.89445	213.97292	99.90337	311.38824	177.34256	81.49285	253.95419	-132.84998	1243.49878	307.43005	-109.78727	961.86273	165.78366	-109.84533	1096.15894	221.35274	43.20554	1614.30432	178.0728	-115.90794	965.77313	313.01251	-148.47308	448.05963	117.88539	-527.57214	289.80234	152.93367	NaN	NaN	NaN	NaN	NaN	NaN	NaN	NaN	NaN	NaN	NaN	NaN	NaN	NaN	NaN	NaN	NaN	NaN	NaN	NaN	NaN	-61.66897	1648.28198	212.16312	NaN	NaN	NaN	NaN	NaN	NaN
54	0.53	200.95035	502.09467	361.29922	362.46457	34.93721	283.98639	-27.40477	928.68451	495.17789	-41.94352	610.60382	86.25373	-148.37181	1121.26477	515.20264	-79.62862	1015.57556	505.61099	-106.76053	1207.6947	492.40262	70.15811	918.49304	352.88965	-294.36783	373.48819	117.3107	-2.69058	962.04785	461.44571	96.33507	643.38525	404.50385	53.30125	1378.79626	101.91611	-522.59485	150.69093	186.13272	204.65172	305.47675	360.75867	183.68082	1145.94836	200.37811	87.68739	1324.58557	251.7312	78.85537	907.0036	122.25307	21.23973	1355.12915	395.64276	52.94672	1617.09741	310.53198	130.87746	1155.93396	247.65019	-516.08716	339.33859	188.25874	39.81324	896.84723	489.38156	-48.85796	1536.96924	298.24539	157.332	1114.95447	88.73487	-35.83464	1392.98865	231.31587	221.95445	1114.17163	178.00122	255.13062	1134.04993	259.00555	75.05817	1205.29688	0.85317	-31.07805	1528.93787	169.25908	99.64764	1099.10046	-6.53345	220.25787	91.16863	307.88232	181.31935	71.41151	252.64511	-100.21578	1235.71179	310.29874	-77.7154	955.05658	164.32188	-77.61961	1090.59741	221.24106	75.36781	1609.59473	179.6478	-84.56301	959.87701	311.46964	-100.77338	437.69348	116.20851	-486.27405	299.30942	150.38707	NaN	NaN	NaN	NaN	NaN	NaN	NaN	NaN	NaN	NaN	NaN	NaN	NaN	NaN	NaN	NaN	NaN	NaN	NaN	NaN	NaN	-29.23581	1643.38513	214.22609	NaN	NaN	NaN	NaN	NaN	NaN
55	0.54	231.03096	495.28183	361.79779	364.71671	32.85405	281.1044	17.34243	916.78857	498.61935	-0.84442	602.3905	84.91547	-105.4972	1107.46838	521.57452	-36.10397	1002.66077	510.25867	-67.42197	1195.12598	497.8298	102.03326	914.35779	354.56305	-246.30658	370.56143	115.6615	40.67241	950.4054	463.94604	129.68515	641.65625	402.2034	85.92843	1372.72583	103.19174	-482.44257	161.19798	185.98035	222.90858	297.08389	358.57245	217.01996	1121.70581	200.52263	119.6982	1318.85217	252.63631	112.07278	902.02948	122.68999	53.58589	1347.62939	397.48529	85.70425	1611.41663	312.30206	163.31964	1150.10962	248.05911	-471.46906	349.4689	184.67366	84.68459	885.08984	490.12885	-16.30959	1531.16602	300.09729	184.98439	1098.80188	87.80011	-3.524	1387.35718	233.00627	252.94102	1089.64441	174.41367	289.87006	1102.54199	254.88675	101.264	1199.38171	0.34868	1.13731	1523.38196	171.05772	122.81577	1091.58472	-5.87879	220.8737	83.83721	303.64117	179.55699	60.31954	250.65633	-67.51502	1227.53979	313.03531	-45.47301	947.17212	162.67828	-45.44696	1084.62598	221.21805	107.61752	1604.12024	181.23251	-53.6694	953.6795	309.68359	-52.14355	426.86963	114.79626	-442.52167	307.69858	147.73282	NaN	NaN	NaN	NaN	NaN	NaN	NaN	NaN	NaN	NaN	NaN	NaN	NaN	NaN	NaN	NaN	NaN	NaN	NaN	NaN	NaN	2.54219	1638.00037	216.56093	NaN	NaN	NaN	NaN	NaN	NaN
56	0.55	261.06982	487.62119	361.91098	363.13992	32.95654	279.09961	62.60392	903.83252	501.59119	39.73531	593.51556	83.35713	-61.89611	1092.80273	527.58105	8.78289	988.88684	515.03284	-27.61934	1181.65503	502.75748	132.86389	910.14587	355.39645	-196.57521	367.08194	113.70947	84.68505	937.83936	466.35202	162.87445	638.02618	401.17908	118.50771	1365.75977	104.27467	-437.82208	170.36192	184.39809	239.45706	289.71106	357.0162	249.55376	1094.62085	199.55345	151.88579	1312.39453	253.45792	144.48158	896.14844	123.12139	86.17902	1339.20642	399.33905	118.35744	1605.10791	313.98669	195.53255	1143.27148	248.27882	-424.4939	358.05948	181.51848	129.61452	872.22485	490.45926	16.38316	1524.77014	301.96246	211.95656	1081.1333	86.41801	28.55463	1380.96497	234.72656	282.69196	1062.84692	169.6395	323.32275	1068.23926	248.57561	127.45793	1192.26965	0.46685	33.26065	1517.1781	172.80362	145.35513	1083.20605	-5.07872	219.9697	78.59195	299.87781	177.80901	52.7415	247.53928	-34.87405	1219.00244	315.64536	-13.79019	938.59424	161.07753	-13.42092	1078.02295	221.37212	139.82181	1598.03638	182.71606	-23.30202	947.09186	307.96024	-2.19638	416.14731	112.2949	-395.35953	315.21771	145.29839	NaN	NaN	NaN	NaN	NaN	NaN	NaN	NaN	NaN	NaN	NaN	NaN	NaN	NaN	NaN	NaN	NaN	NaN	NaN	NaN	NaN	35.63615	1631.58154	218.32484	NaN	NaN	NaN	NaN	NaN	NaN
57	0.56	290.49893	479.22961	360.81015	364.19574	32.64124	279.23877	109.33854	890.44763	504.577	80.65914	584.02216	81.65594	-17.43616	1077.4834	533.24817	54.58463	974.37335	519.40533	12.58855	1167.35559	507.1228	163.35863	905.64392	356.64056	-145.09221	363.20242	111.54425	129.47295	924.6853	468.69482	195.07948	631.54669	403.61545	150.92281	1358.17236	105.1151	-388.84897	177.48775	181.24043	256.41681	283.78906	355.8895	280.87335	1065.21667	197.05524	184.23802	1305.55164	254.23026	176.20073	889.50085	123.60349	118.92909	1330.15405	401.20889	150.95064	1598.78223	315.5347	227.54918	1135.69739	248.27472	-375.19089	364.7916	178.87227	175.95108	859.45221	490.93143	49.06157	1518.10596	303.80893	238.34892	1062.05432	84.18175	60.54142	1373.9646	236.52272	311.52579	1034.72974	163.23027	355.12805	1031.81714	239.82227	153.66917	1183.9812	1.05699	65.40106	1510.62317	174.54695	167.83397	1074.17761	-4.38407	222.93391	74.42986	297.12048	178.35168	47.61502	244.97961	-2.44435	1210.27039	318.05362	17.20319	929.34869	159.61273	18.49207	1071.04419	221.63112	171.89674	1591.8075	184.00404	6.63054	940.12756	306.48358	48.79127	405.31857	110.0296	-345.67438	321.45285	143.21107	NaN	NaN	NaN	NaN	NaN	NaN	NaN	NaN	NaN	NaN	NaN	NaN	NaN	NaN	NaN	NaN	NaN	NaN	NaN	NaN	NaN	67.8688	1624.97339	220.25209	NaN	NaN	NaN	NaN	NaN	NaN
58	0.57	317.50104	469.63089	359.65253	364.52704	32.62319	278.0289	156.75357	877.16339	506.7861	122.49086	574.29718	79.9025	28.00608	1061.80579	538.5871	101.42158	959.72058	522.7948	53.20299	1152.49194	510.99194	193.83022	900.64069	357.90668	-91.67993	358.75696	109.28896	175.9724	911.58691	469.99225	224.40677	622.8858	403.57205	183.22572	1350.48779	105.41893	-335.74667	182.10103	176.49374	274.12994	278.39182	353.48376	311.05203	1034.24097	192.72479	216.91368	1298.66101	254.84077	206.99593	882.39636	124.24941	151.85655	1320.99634	402.94913	183.41402	1592.69507	316.80795	259.30048	1127.75208	248.01544	-323.96997	369.37927	176.93501	223.25099	847.32501	490.8508	81.793	1511.51306	305.74261	264.29813	1042.16919	81.18962	92.43114	1366.64465	238.48489	339.06851	1005.0907	154.83087	385.08762	993.99646	228.38675	179.70624	1174.61853	2.12305	97.5551	1504.05701	176.36308	190.31815	1064.55835	-3.97952	224.2645	72.03613	293.672	178.68004	44.37045	241.5938	30.02258	1201.34961	320.46228	47.40156	919.82251	158.4343	50.24464	1063.66321	222.07614	203.91229	1585.75146	185.17026	36.25147	933.20361	305.74454	100.71746	394.31149	108.18443	-293.41391	326.36664	141.3578	NaN	NaN	NaN	NaN	NaN	NaN	NaN	NaN	NaN	NaN	NaN	NaN	NaN	NaN	NaN	NaN	NaN	NaN	NaN	NaN	NaN	99.89226	1618.40674	222.01596	NaN	NaN	NaN	NaN	NaN	NaN
